<svg xmlns="http://www.w3.org/2000/svg" width="1600" height="900" viewBox="0 0 1600 900">
  <defs>
    <linearGradient id="bg3" x1="0" y1="0" x2="1" y2="1">
      <stop offset="0" stop-color="#070a12"/>
      <stop offset="0.6" stop-color="#0b1430"/>
      <stop offset="1" stop-color="#0b0f1e"/>
    </linearGradient>
    <radialGradient id="rg1" cx="55%" cy="40%" r="70%">
      <stop offset="0" stop-color="#f59e0b" stop-opacity="0.18"/>
      <stop offset="1" stop-color="#f59e0b" stop-opacity="0"/>
    </radialGradient>
    <radialGradient id="rg2" cx="15%" cy="80%" r="70%">
      <stop offset="0" stop-color="#22d3ee" stop-opacity="0.22"/>
      <stop offset="1" stop-color="#22d3ee" stop-opacity="0"/>
    </radialGradient>
    <filter id="soft3" x="-20%" y="-20%" width="140%" height="140%">
      <feGaussianBlur stdDeviation="46"/>
    </filter>
  </defs>

  <rect width="1600" height="900" fill="url(#bg3)"/>
  <rect width="1600" height="900" fill="url(#rg1)"/>
  <rect width="1600" height="900" fill="url(#rg2)"/>

  <g filter="url(#soft3)">
    <circle cx="980" cy="320" r="220" fill="#f59e0b" fill-opacity="0.16"/>
    <circle cx="280" cy="720" r="260" fill="#22d3ee" fill-opacity="0.16"/>
  </g>

  <g font-family="Inter, ui-sans-serif, system-ui" fill="#ffffff" opacity="0.92">
    <text x="120" y="180" font-size="26" fill-opacity="0.72" letter-spacing="2">USER EXPERIENCE</text>
    <text x="120" y="265" font-size="68" font-weight="800">Clean Report‑Style Results</text>
    <text x="120" y="332" font-size="34" fill-opacity="0.78">Export PNG / HQ PDF • Ultra safety pack</text>
  </g>

  <g transform="translate(120 410)" opacity="0.95">
    <rect x="0" y="0" width="1350" height="320" rx="34" fill="#0b1226" fill-opacity="0.52" stroke="#ffffff" stroke-opacity="0.10"/>

    <g transform="translate(34 34)">
      <rect x="0" y="0" width="620" height="252" rx="26" fill="#ffffff" fill-opacity="0.06" stroke="#ffffff" stroke-opacity="0.10"/>
      <text x="26" y="52" font-size="26" font-weight="800" fill-opacity="0.92">Result Card</text>
      <text x="26" y="92" font-size="18" fill-opacity="0.68">Better layout on mobile + premium sections locked</text>
      <rect x="26" y="118" width="240" height="44" rx="22" fill="#34d399" fill-opacity="0.14" stroke="#34d399" stroke-opacity="0.25"/>
      <text x="48" y="148" font-size="18" font-weight="700" fill-opacity="0.88">FDA Verified</text>
      <rect x="26" y="176" width="560" height="14" rx="7" fill="#ffffff" fill-opacity="0.18"/>
      <rect x="26" y="200" width="480" height="12" rx="6" fill="#ffffff" fill-opacity="0.12"/>
      <rect x="26" y="222" width="520" height="12" rx="6" fill="#ffffff" fill-opacity="0.10"/>
    </g>

    <g transform="translate(700 34)">
      <rect x="0" y="0" width="616" height="252" rx="26" fill="#ffffff" fill-opacity="0.06" stroke="#ffffff" stroke-opacity="0.10"/>
      <text x="26" y="52" font-size="26" font-weight="800" fill-opacity="0.92">Exports</text>
      <text x="26" y="92" font-size="18" fill-opacity="0.68">High quality image/PDF ready for sharing</text>
      <rect x="26" y="124" width="200" height="44" rx="22" fill="#22d3ee" fill-opacity="0.14" stroke="#22d3ee" stroke-opacity="0.25"/>
      <text x="52" y="154" font-size="18" font-weight="700" fill-opacity="0.88">PNG</text>
      <rect x="240" y="124" width="220" height="44" rx="22" fill="#f59e0b" fill-opacity="0.14" stroke="#f59e0b" stroke-opacity="0.25"/>
      <text x="266" y="154" font-size="18" font-weight="700" fill-opacity="0.88">PDF (HQ)</text>
      <rect x="26" y="190" width="560" height="14" rx="7" fill="#ffffff" fill-opacity="0.18"/>
      <rect x="26" y="214" width="500" height="12" rx="6" fill="#ffffff" fill-opacity="0.12"/>
    </g>
  </g>
</svg>

