<svg xmlns="http://www.w3.org/2000/svg" width="1600" height="900" viewBox="0 0 1600 900">
  <defs>
    <linearGradient id="bg1" x1="0" y1="0" x2="1" y2="1">
      <stop offset="0" stop-color="#0b0f1e"/>
      <stop offset="0.55" stop-color="#0b1430"/>
      <stop offset="1" stop-color="#070a12"/>
    </linearGradient>
    <radialGradient id="glow1" cx="50%" cy="30%" r="70%">
      <stop offset="0" stop-color="#22d3ee" stop-opacity="0.35"/>
      <stop offset="1" stop-color="#22d3ee" stop-opacity="0"/>
    </radialGradient>
    <radialGradient id="glow2" cx="80%" cy="70%" r="70%">
      <stop offset="0" stop-color="#a78bfa" stop-opacity="0.25"/>
      <stop offset="1" stop-color="#a78bfa" stop-opacity="0"/>
    </radialGradient>
    <filter id="blur" x="-20%" y="-20%" width="140%" height="140%">
      <feGaussianBlur stdDeviation="40"/>
    </filter>
  </defs>

  <rect width="1600" height="900" fill="url(#bg1)"/>
  <rect width="1600" height="900" fill="url(#glow1)"/>
  <rect width="1600" height="900" fill="url(#glow2)"/>

  <g filter="url(#blur)" opacity="0.9">
    <circle cx="340" cy="260" r="180" fill="#22d3ee" fill-opacity="0.18"/>
    <circle cx="1220" cy="640" r="240" fill="#a78bfa" fill-opacity="0.18"/>
    <circle cx="980" cy="220" r="140" fill="#f472b6" fill-opacity="0.10"/>
  </g>

  <g opacity="0.7">
    <path d="M210 660 C420 520, 600 820, 820 660 C1040 500, 1210 820, 1390 660" fill="none" stroke="#ffffff" stroke-opacity="0.12" stroke-width="10"/>
    <path d="M210 705 C420 565, 600 860, 820 705 C1040 545, 1210 860, 1390 705" fill="none" stroke="#22d3ee" stroke-opacity="0.12" stroke-width="8"/>
  </g>

  <g font-family="Inter, ui-sans-serif, system-ui" fill="#ffffff">
    <text x="120" y="190" font-size="26" fill-opacity="0.72" letter-spacing="2">QURE AI • BILLBOARD</text>
    <text x="120" y="275" font-size="70" font-weight="800">Scan Any Medication</text>
    <text x="120" y="340" font-size="36" fill-opacity="0.78">Fast OCR + Deep Analysis + FDA / Web Verification</text>
    <g transform="translate(120 400)">
      <rect x="0" y="0" width="320" height="58" rx="29" fill="#22d3ee" fill-opacity="0.18" stroke="#22d3ee" stroke-opacity="0.35"/>
      <text x="28" y="39" font-size="22" font-weight="700" fill-opacity="0.92">Ready in seconds</text>
    </g>
  </g>

  <g transform="translate(1110 190)" opacity="0.95">
    <rect x="0" y="0" width="360" height="520" rx="34" fill="#0b1226" fill-opacity="0.55" stroke="#ffffff" stroke-opacity="0.10"/>
    <rect x="22" y="22" width="316" height="120" rx="22" fill="#ffffff" fill-opacity="0.06" stroke="#ffffff" stroke-opacity="0.10"/>
    <rect x="22" y="164" width="316" height="90" rx="22" fill="#ffffff" fill-opacity="0.06" stroke="#ffffff" stroke-opacity="0.10"/>
    <rect x="22" y="276" width="316" height="90" rx="22" fill="#ffffff" fill-opacity="0.06" stroke="#ffffff" stroke-opacity="0.10"/>
    <rect x="22" y="388" width="316" height="110" rx="22" fill="#ffffff" fill-opacity="0.06" stroke="#ffffff" stroke-opacity="0.10"/>

    <circle cx="70" cy="80" r="22" fill="#22d3ee" fill-opacity="0.22"/>
    <rect x="106" y="64" width="190" height="12" rx="6" fill="#ffffff" fill-opacity="0.25"/>
    <rect x="106" y="88" width="230" height="10" rx="5" fill="#ffffff" fill-opacity="0.16"/>

    <circle cx="70" cy="208" r="18" fill="#a78bfa" fill-opacity="0.22"/>
    <rect x="106" y="196" width="210" height="10" rx="5" fill="#ffffff" fill-opacity="0.20"/>
    <rect x="106" y="216" width="170" height="10" rx="5" fill="#ffffff" fill-opacity="0.12"/>

    <circle cx="70" cy="320" r="18" fill="#f472b6" fill-opacity="0.18"/>
    <rect x="106" y="308" width="220" height="10" rx="5" fill="#ffffff" fill-opacity="0.18"/>
    <rect x="106" y="328" width="150" height="10" rx="5" fill="#ffffff" fill-opacity="0.12"/>
  </g>
</svg>

