<svg xmlns="http://www.w3.org/2000/svg" width="1600" height="900" viewBox="0 0 1600 900">
  <defs>
    <linearGradient id="bg1" x1="0" y1="0" x2="1" y2="1">
      <stop offset="0" stop-color="#05070d"/>
      <stop offset="0.6" stop-color="#0b1021"/>
      <stop offset="1" stop-color="#070a12"/>
    </linearGradient>
    <radialGradient id="glow1" cx="70%" cy="25%" r="75%">
      <stop offset="0" stop-color="#22d3ee" stop-opacity="0.25"/>
      <stop offset="1" stop-color="#22d3ee" stop-opacity="0"/>
    </radialGradient>
    <radialGradient id="glow2" cx="20%" cy="75%" r="80%">
      <stop offset="0" stop-color="#a78bfa" stop-opacity="0.20"/>
      <stop offset="1" stop-color="#a78bfa" stop-opacity="0"/>
    </radialGradient>
    <radialGradient id="vignette1" cx="50%" cy="50%" r="75%">
      <stop offset="0" stop-color="#000000" stop-opacity="0"/>
      <stop offset="1" stop-color="#000000" stop-opacity="0.55"/>
    </radialGradient>
    <filter id="blur1" x="-20%" y="-20%" width="140%" height="140%">
      <feGaussianBlur stdDeviation="44"/>
    </filter>
  </defs>

  <rect width="1600" height="900" fill="url(#bg1)"/>
  <rect width="1600" height="900" fill="url(#glow1)"/>
  <rect width="1600" height="900" fill="url(#glow2)"/>
  <rect width="1600" height="900" fill="url(#vignette1)"/>

  <g filter="url(#blur1)" opacity="0.85">
    <circle cx="280" cy="220" r="190" fill="#22d3ee" fill-opacity="0.14"/>
    <circle cx="1320" cy="660" r="260" fill="#a78bfa" fill-opacity="0.14"/>
    <circle cx="980" cy="240" r="160" fill="#f472b6" fill-opacity="0.10"/>
  </g>

  <g opacity="0.45">
    <path d="M140 700 C360 560, 620 840, 860 700 C1100 560, 1280 840, 1500 700" fill="none" stroke="#ffffff" stroke-opacity="0.10" stroke-width="10"/>
    <path d="M140 740 C360 600, 620 880, 860 740 C1100 600, 1280 880, 1500 740" fill="none" stroke="#22d3ee" stroke-opacity="0.10" stroke-width="8"/>
  </g>

  <g font-family="Cairo, Tajawal, 'Noto Kufi Arabic', 'Noto Sans Arabic', system-ui" fill="#ffffff" opacity="0.96">
    <text x="1480" y="190" font-size="24" fill-opacity="0.70" letter-spacing="2" text-anchor="end" direction="rtl">QURE AI • اللوحة الرئيسية</text>
    <text x="1480" y="285" font-size="72" font-weight="800" text-anchor="end" direction="rtl">حلّل أي دواء خلال ثوانٍ</text>
    <text x="1480" y="352" font-size="34" fill-opacity="0.78" text-anchor="end" direction="rtl">OCR فائق + تحليل عميق + تحقق من FDA والويب</text>
    <g transform="translate(1160 402)">
      <rect x="0" y="0" width="320" height="58" rx="29" fill="#22d3ee" fill-opacity="0.18" stroke="#22d3ee" stroke-opacity="0.35"/>
      <text x="288" y="39" font-size="22" font-weight="700" fill-opacity="0.92" text-anchor="end" direction="rtl">جاهز خلال ثوانٍ</text>
    </g>
  </g>

  <g transform="translate(120 170)" opacity="0.95">
    <rect x="0" y="0" width="430" height="560" rx="36" fill="#0b1226" fill-opacity="0.60" stroke="#ffffff" stroke-opacity="0.10"/>
    <rect x="26" y="26" width="378" height="130" rx="24" fill="#ffffff" fill-opacity="0.06" stroke="#ffffff" stroke-opacity="0.10"/>
    <rect x="26" y="176" width="378" height="96" rx="24" fill="#ffffff" fill-opacity="0.06" stroke="#ffffff" stroke-opacity="0.10"/>
    <rect x="26" y="292" width="378" height="96" rx="24" fill="#ffffff" fill-opacity="0.06" stroke="#ffffff" stroke-opacity="0.10"/>
    <rect x="26" y="408" width="378" height="116" rx="24" fill="#ffffff" fill-opacity="0.06" stroke="#ffffff" stroke-opacity="0.10"/>

    <circle cx="84" cy="92" r="22" fill="#22d3ee" fill-opacity="0.22"/>
    <rect x="126" y="76" width="210" height="12" rx="6" fill="#ffffff" fill-opacity="0.25"/>
    <rect x="126" y="100" width="240" height="10" rx="5" fill="#ffffff" fill-opacity="0.16"/>

    <circle cx="84" cy="226" r="18" fill="#a78bfa" fill-opacity="0.22"/>
    <rect x="126" y="214" width="230" height="12" rx="6" fill="#ffffff" fill-opacity="0.20"/>
    <rect x="126" y="234" width="180" height="10" rx="5" fill="#ffffff" fill-opacity="0.12"/>

    <circle cx="84" cy="340" r="18" fill="#f472b6" fill-opacity="0.18"/>
    <rect x="126" y="328" width="240" height="10" rx="5" fill="#ffffff" fill-opacity="0.18"/>
    <rect x="126" y="348" width="170" height="10" rx="5" fill="#ffffff" fill-opacity="0.12"/>
  </g>
</svg>
