<svg xmlns="http://www.w3.org/2000/svg" width="1600" height="900" viewBox="0 0 1600 900">
  <defs>
    <linearGradient id="bg2" x1="0" y1="1" x2="1" y2="0">
      <stop offset="0" stop-color="#05070d"/>
      <stop offset="0.6" stop-color="#0b1021"/>
      <stop offset="1" stop-color="#0a0f1e"/>
    </linearGradient>
    <radialGradient id="g1" cx="20%" cy="70%" r="80%">
      <stop offset="0" stop-color="#60a5fa" stop-opacity="0.20"/>
      <stop offset="1" stop-color="#60a5fa" stop-opacity="0"/>
    </radialGradient>
    <radialGradient id="g2" cx="80%" cy="25%" r="80%">
      <stop offset="0" stop-color="#f472b6" stop-opacity="0.18"/>
      <stop offset="1" stop-color="#f472b6" stop-opacity="0"/>
    </radialGradient>
    <radialGradient id="vignette2" cx="50%" cy="50%" r="75%">
      <stop offset="0" stop-color="#000000" stop-opacity="0"/>
      <stop offset="1" stop-color="#000000" stop-opacity="0.55"/>
    </radialGradient>
    <filter id="soft2" x="-20%" y="-20%" width="140%" height="140%">
      <feGaussianBlur stdDeviation="52"/>
    </filter>
  </defs>

  <rect width="1600" height="900" fill="url(#bg2)"/>
  <rect width="1600" height="900" fill="url(#g1)"/>
  <rect width="1600" height="900" fill="url(#g2)"/>
  <rect width="1600" height="900" fill="url(#vignette2)"/>

  <g filter="url(#soft2)">
    <circle cx="520" cy="660" r="280" fill="#60a5fa" fill-opacity="0.14"/>
    <circle cx="1120" cy="220" r="260" fill="#f472b6" fill-opacity="0.12"/>
  </g>

  <g opacity="0.92" font-family="Cairo, Tajawal, 'Noto Kufi Arabic', 'Noto Sans Arabic', system-ui" fill="#ffffff">
    <text x="1480" y="180" font-size="24" fill-opacity="0.70" letter-spacing="2" text-anchor="end" direction="rtl">مصادر موثوقة • تحقق</text>
    <text x="1480" y="265" font-size="70" font-weight="800" text-anchor="end" direction="rtl">تحقق مزدوج من FDA والويب</text>
    <text x="1480" y="332" font-size="34" fill-opacity="0.78" text-anchor="end" direction="rtl">تقليل الأخطاء ورفع الثقة في النتائج</text>
  </g>

  <g transform="translate(120 400)" opacity="0.95">
    <rect x="0" y="0" width="780" height="360" rx="34" fill="#0b1226" fill-opacity="0.58" stroke="#ffffff" stroke-opacity="0.10"/>

    <rect x="28" y="28" width="724" height="88" rx="22" fill="#ffffff" fill-opacity="0.06" stroke="#ffffff" stroke-opacity="0.10"/>
    <rect x="28" y="134" width="724" height="88" rx="22" fill="#ffffff" fill-opacity="0.06" stroke="#ffffff" stroke-opacity="0.10"/>
    <rect x="28" y="240" width="724" height="92" rx="22" fill="#ffffff" fill-opacity="0.06" stroke="#ffffff" stroke-opacity="0.10"/>

    <circle cx="78" cy="72" r="18" fill="#34d399" fill-opacity="0.28"/>
    <rect x="112" y="58" width="260" height="12" rx="6" fill="#ffffff" fill-opacity="0.24"/>
    <rect x="112" y="80" width="420" height="10" rx="5" fill="#ffffff" fill-opacity="0.14"/>

    <circle cx="78" cy="178" r="18" fill="#22d3ee" fill-opacity="0.28"/>
    <rect x="112" y="164" width="310" height="12" rx="6" fill="#ffffff" fill-opacity="0.22"/>
    <rect x="112" y="186" width="460" height="10" rx="5" fill="#ffffff" fill-opacity="0.14"/>

    <circle cx="78" cy="286" r="18" fill="#a78bfa" fill-opacity="0.24"/>
    <rect x="112" y="272" width="340" height="12" rx="6" fill="#ffffff" fill-opacity="0.20"/>
    <rect x="112" y="294" width="520" height="10" rx="5" fill="#ffffff" fill-opacity="0.14"/>
  </g>

  <g transform="translate(980 430)" opacity="0.95">
    <rect x="0" y="0" width="490" height="330" rx="34" fill="#0b1226" fill-opacity="0.54" stroke="#ffffff" stroke-opacity="0.10"/>
    <text x="450" y="64" font-family="Cairo, Tajawal, 'Noto Kufi Arabic', 'Noto Sans Arabic', system-ui" font-size="28" font-weight="800" fill="#ffffff" fill-opacity="0.92" text-anchor="end" direction="rtl">تصنيف الدواء</text>
    <text x="450" y="106" font-family="Cairo, Tajawal, 'Noto Kufi Arabic', 'Noto Sans Arabic', system-ui" font-size="20" fill="#ffffff" fill-opacity="0.70" text-anchor="end" direction="rtl">دواء بشري • مكمل • بيطري</text>
    <rect x="34" y="140" width="210" height="44" rx="22" fill="#22d3ee" fill-opacity="0.16" stroke="#22d3ee" stroke-opacity="0.30"/>
    <text x="228" y="170" font-family="Cairo, Tajawal, 'Noto Kufi Arabic', 'Noto Sans Arabic', system-ui" font-size="18" font-weight="700" fill="#ffffff" fill-opacity="0.85" text-anchor="end" direction="rtl">النوع المكتشف</text>
    <rect x="34" y="200" width="420" height="90" rx="22" fill="#ffffff" fill-opacity="0.06" stroke="#ffffff" stroke-opacity="0.10"/>
  </g>
</svg>
